<?xml version="1.0" encoding="UTF-8" standalone="no"?>
<!DOCTYPE svg PUBLIC "-//W3C//DTD SVG 1.1//EN" "http://www.w3.org/Graphics/SVG/1.1/DTD/svg11.dtd">
<svg width="100%" height="100%" viewBox="0 0 550 676" version="1.1" xmlns="http://www.w3.org/2000/svg" xmlns:xlink="http://www.w3.org/1999/xlink" xml:space="preserve" xmlns:serif="http://www.serif.com/" style="fill-rule:evenodd;clip-rule:evenodd;stroke-linejoin:round;stroke-miterlimit:2;">
    <g transform="matrix(1,0,0,1,-221.050379,-198.472218)">
        <g transform="matrix(1,0,0,1,387,203)">
            <path d="M0,0C0.651,0.182 1.302,0.364 1.973,0.551C21.628,6.095 39.062,16.295 50,34C57.912,48.881 61.013,65.998 56.564,82.482C51.404,99.111 40.969,110.495 26,119C25.175,119.474 24.35,119.949 23.5,120.438C1.736,132.156 -26.57,129.488 -50,125C-51.112,128.247 -52.213,131.498 -53.312,134.75C-53.776,136.102 -53.776,136.102 -54.248,137.48C-58.036,148.725 -60.467,159.873 -62.062,171.625C-62.223,172.756 -62.383,173.886 -62.549,175.051C-63.057,178.698 -63.533,182.348 -64,186C-64.09,186.676 -64.181,187.351 -64.274,188.047C-65.915,200.427 -66.361,212.644 -66.312,225.125C-66.311,226.078 -66.31,227.031 -66.308,228.013C-66.185,272.132 -60.696,317.834 -39,357C-38.413,358.075 -37.827,359.15 -37.223,360.258C-30.71,371.807 -22.566,381.942 -14,392C-10.994,391.379 -8.738,390.406 -6.121,388.812C-5.374,388.365 -4.627,387.918 -3.857,387.457C-3.059,386.976 -2.26,386.495 -1.438,386C18.168,374.429 37.742,366.695 60,362C60.844,361.807 61.688,361.613 62.557,361.414C72.002,359.505 81.508,359.733 91.1,359.794C94.059,359.812 97.019,359.815 99.979,359.814C112.155,359.836 123.967,360.032 135.875,362.812C136.647,362.99 137.418,363.167 138.214,363.35C149.779,366.065 160.324,369.772 171,375C172.247,375.582 173.494,376.163 174.742,376.742C199.697,388.53 222.252,406.848 240.258,427.73C243.914,431.929 247.685,436.008 251.5,440.062C252.125,440.731 252.75,441.399 253.395,442.088C255.253,444.068 257.124,446.036 259,448C259.589,448.623 260.179,449.246 260.786,449.887C264.52,453.746 268.32,456.908 272.875,459.75C273.487,460.133 274.099,460.517 274.73,460.912C284.998,467.184 294.566,468.412 306.5,466.438C325.464,461.401 337.789,446.273 347.309,430.145C350.478,424.637 353.479,419.05 356.352,413.383C356.743,412.619 357.134,411.856 357.537,411.07C358.281,409.61 359.013,408.144 359.731,406.671C362.146,401.924 364.615,399.066 369,396C372.618,395.409 374.422,395.737 377.75,397.25C381.165,399.906 381.805,401.867 382.532,406.097C383.039,410.325 383.197,414.45 383.238,418.703C383.248,419.531 383.258,420.358 383.268,421.21C383.293,423.89 383.305,426.57 383.312,429.25C383.315,430.165 383.318,431.081 383.32,432.024C383.325,447.674 382.173,462.635 379,478C378.824,478.865 378.648,479.731 378.466,480.622C376.809,488.569 374.831,496.383 372,504C371.591,505.165 371.183,506.331 370.762,507.531C363.705,527.358 353.819,545.063 340,561C339.281,561.853 338.561,562.707 337.82,563.586C332.425,569.826 326.557,575.009 320,580C319.483,580.397 318.967,580.794 318.435,581.203C302.478,593.37 282.986,605.366 263,609C262.959,609.644 262.918,610.288 262.876,610.951C261.609,627.663 258.843,649.786 246.25,662C235.661,670.258 222.804,671.16 209.875,671.25C208.945,671.259 208.014,671.269 207.056,671.278C198.959,671.241 191.574,670.455 184.562,666.125C183.739,665.633 182.915,665.14 182.066,664.633C179.876,662.902 179.018,661.569 178,659C177.056,659.035 176.113,659.07 175.141,659.105C163.708,659.347 153.864,658.408 144.035,651.988C138.192,646.28 136.167,640.202 135.188,632.25C135.067,631.413 134.946,630.577 134.822,629.715C134.315,626.077 134,622.687 134,619C132.957,619.011 131.914,619.022 130.839,619.033C117.345,619.126 103.881,618.705 90.398,618.2C86.649,618.061 82.9,617.93 79.15,617.799C76.75,617.711 74.35,617.624 71.949,617.535C70.837,617.497 69.724,617.458 68.578,617.418C63.641,617.228 58.854,617.005 54,616C53.87,617.112 53.87,617.112 53.738,618.246C51.848,632.413 48.53,651.302 37.75,661.5C33.57,664.623 28.945,666.434 24,668C23.287,668.227 22.574,668.454 21.84,668.688C8.205,672.15 -9.173,671.776 -21.426,664.574C-27.435,660.323 -30.775,656.043 -33,649C-33.883,649.046 -34.766,649.093 -35.676,649.141C-46.642,649.47 -55.681,647.81 -64.289,640.66C-76.898,628.425 -77.02,603.489 -78.062,587.125C-78.152,585.871 -78.242,584.618 -78.334,583.326C-78.743,577.36 -79.047,571.442 -78.996,565.461C-78.947,553.206 -80.052,546.411 -88.614,537.523C-91.007,534.893 -92.928,531.968 -94.875,529C-95.487,528.072 -95.487,528.072 -96.112,527.125C-112.613,501.724 -124.871,474.482 -135,446C-135.414,444.836 -135.828,443.672 -136.255,442.473C-149.501,404.858 -157.073,365.516 -162,326C-162.165,324.705 -162.33,323.41 -162.5,322.075C-167.598,280.185 -166.719,236.881 -162,195C-161.767,192.668 -161.536,190.336 -161.309,188.004C-159.833,173.478 -157.398,159.199 -154.567,144.88C-154.081,142.409 -153.611,139.937 -153.152,137.461C-151.577,129.143 -149.421,121.108 -147,113C-146.636,111.695 -146.274,110.389 -145.914,109.082C-141.06,91.646 -134.579,74.94 -126,59C-125.686,58.401 -125.372,57.803 -125.048,57.186C-111.353,31.164 -88.674,8.774 -60.25,-0.375C-40.548,-6.135 -19.613,-5.803 0,0Z" style="fill:rgb(253,253,253);fill-rule:nonzero;"/>
        </g>
        <g transform="matrix(1,0,0,1,387,203)">
            <path d="M0,0C0.651,0.182 1.302,0.364 1.973,0.551C21.628,6.095 39.062,16.295 50,34C57.912,48.881 61.013,65.998 56.564,82.482C51.404,99.111 40.969,110.495 26,119C25.175,119.474 24.35,119.949 23.5,120.438C1.736,132.156 -26.57,129.488 -50,125C-51.112,128.247 -52.213,131.498 -53.312,134.75C-53.776,136.102 -53.776,136.102 -54.248,137.48C-58.036,148.725 -60.467,159.873 -62.062,171.625C-62.223,172.756 -62.383,173.886 -62.549,175.051C-63.057,178.698 -63.533,182.348 -64,186C-64.09,186.676 -64.181,187.351 -64.274,188.047C-65.915,200.427 -66.361,212.644 -66.312,225.125C-66.311,226.078 -66.31,227.031 -66.308,228.013C-66.185,272.132 -60.696,317.834 -39,357C-38.413,358.075 -37.827,359.15 -37.223,360.258C-30.71,371.807 -22.566,381.942 -14,392C-10.994,391.379 -8.738,390.406 -6.121,388.812C-5.374,388.365 -4.627,387.918 -3.857,387.457C-3.059,386.976 -2.26,386.495 -1.438,386C18.168,374.429 37.742,366.695 60,362C60.844,361.807 61.688,361.613 62.557,361.414C72.002,359.505 81.508,359.733 91.1,359.794C94.059,359.812 97.019,359.815 99.979,359.814C112.155,359.836 123.967,360.032 135.875,362.812C136.647,362.99 137.418,363.167 138.214,363.35C149.779,366.065 160.324,369.772 171,375C172.247,375.582 173.494,376.163 174.742,376.742C199.697,388.53 222.252,406.848 240.258,427.73C243.914,431.929 247.685,436.008 251.5,440.062C252.125,440.731 252.75,441.399 253.395,442.088C255.253,444.068 257.124,446.036 259,448C259.589,448.623 260.179,449.246 260.786,449.887C264.52,453.746 268.32,456.908 272.875,459.75C273.487,460.133 274.099,460.517 274.73,460.912C284.998,467.184 294.566,468.412 306.5,466.438C325.464,461.401 337.789,446.273 347.309,430.145C350.478,424.637 353.479,419.05 356.352,413.383C356.743,412.619 357.134,411.856 357.537,411.07C358.281,409.61 359.013,408.144 359.731,406.671C362.146,401.924 364.615,399.066 369,396C372.618,395.409 374.422,395.737 377.75,397.25C381.165,399.906 381.805,401.867 382.532,406.097C383.039,410.325 383.197,414.45 383.238,418.703C383.248,419.531 383.258,420.358 383.268,421.21C383.293,423.89 383.305,426.57 383.312,429.25C383.315,430.165 383.318,431.081 383.32,432.024C383.325,447.674 382.173,462.635 379,478C378.824,478.865 378.648,479.731 378.466,480.622C376.809,488.569 374.831,496.383 372,504C371.591,505.165 371.183,506.331 370.762,507.531C363.705,527.358 353.819,545.063 340,561C339.281,561.853 338.561,562.707 337.82,563.586C332.425,569.826 326.557,575.009 320,580C319.483,580.397 318.967,580.794 318.435,581.203C302.478,593.37 282.986,605.366 263,609C262.959,609.644 262.918,610.288 262.876,610.951C261.609,627.663 258.843,649.786 246.25,662C235.661,670.258 222.804,671.16 209.875,671.25C208.945,671.259 208.014,671.269 207.056,671.278C198.959,671.241 191.574,670.455 184.562,666.125C183.739,665.633 182.915,665.14 182.066,664.633C179.876,662.902 179.018,661.569 178,659C177.056,659.035 176.113,659.07 175.141,659.105C163.708,659.347 153.864,658.408 144.035,651.988C138.192,646.28 136.167,640.202 135.188,632.25C135.067,631.413 134.946,630.577 134.822,629.715C134.315,626.077 134,622.687 134,619C132.957,619.011 131.914,619.022 130.839,619.033C117.345,619.126 103.881,618.705 90.398,618.2C86.649,618.061 82.9,617.93 79.15,617.799C76.75,617.711 74.35,617.624 71.949,617.535C70.837,617.497 69.724,617.458 68.578,617.418C63.641,617.228 58.854,617.005 54,616C53.87,617.112 53.87,617.112 53.738,618.246C51.848,632.413 48.53,651.302 37.75,661.5C33.57,664.623 28.945,666.434 24,668C23.287,668.227 22.574,668.454 21.84,668.688C8.205,672.15 -9.173,671.776 -21.426,664.574C-27.435,660.323 -30.775,656.043 -33,649C-33.883,649.046 -34.766,649.093 -35.676,649.141C-46.642,649.47 -55.681,647.81 -64.289,640.66C-76.898,628.425 -77.02,603.489 -78.062,587.125C-78.152,585.871 -78.242,584.618 -78.334,583.326C-78.743,577.36 -79.047,571.442 -78.996,565.461C-78.947,553.206 -80.052,546.411 -88.614,537.523C-91.007,534.893 -92.928,531.968 -94.875,529C-95.487,528.072 -95.487,528.072 -96.112,527.125C-112.613,501.724 -124.871,474.482 -135,446C-135.414,444.836 -135.828,443.672 -136.255,442.473C-149.501,404.858 -157.073,365.516 -162,326C-162.165,324.705 -162.33,323.41 -162.5,322.075C-167.598,280.185 -166.719,236.881 -162,195C-161.767,192.668 -161.536,190.336 -161.309,188.004C-159.833,173.478 -157.398,159.199 -154.567,144.88C-154.081,142.409 -153.611,139.937 -153.152,137.461C-151.577,129.143 -149.421,121.108 -147,113C-146.636,111.695 -146.274,110.389 -145.914,109.082C-141.06,91.646 -134.579,74.94 -126,59C-125.686,58.401 -125.372,57.803 -125.048,57.186C-111.353,31.164 -88.674,8.774 -60.25,-0.375C-40.548,-6.135 -19.613,-5.803 0,0ZM-99,42C-131.549,81.542 -141.759,137.42 -147.625,186.875C-147.736,187.804 -147.847,188.734 -147.962,189.692C-148.346,193.125 -148.678,196.561 -149,200C-149.083,200.848 -149.165,201.697 -149.25,202.571C-150.931,220.219 -151.316,237.767 -151.261,255.476C-151.249,259.135 -151.256,262.793 -151.268,266.452C-151.331,290.145 -150.485,313.754 -147.188,337.25C-147.018,338.487 -146.848,339.724 -146.674,340.998C-144.995,352.792 -142.633,364.387 -140,376C-139.593,377.844 -139.187,379.687 -138.781,381.531C-136.621,391.278 -134.314,400.991 -131.938,410.688C-131.704,411.655 -131.471,412.622 -131.231,413.619C-129.804,419.358 -128.05,424.86 -125.97,430.395C-125.096,432.743 -124.286,435.099 -123.508,437.48C-110.805,476.008 -93.038,512.691 -67,544C-66.529,544.573 -66.058,545.145 -65.572,545.735C-55.795,557.582 -45.468,568.762 -33.145,578C-28.286,582.531 -28.397,588.875 -27.781,595.129C-27.678,596.114 -27.574,597.1 -27.468,598.115C-27.138,601.264 -26.819,604.413 -26.5,607.562C-25.756,631.22 -29.756,631.22 -20.438,651.688C-11.559,658.352 4.412,658.021 15,657C21.672,655.789 27.71,653.945 31.724,648.179C36.22,640.5 37.978,631.506 39.688,622.875C39.9,621.855 40.112,620.836 40.33,619.785C41.535,613.865 42.431,608.014 43,602C43.546,602.055 44.092,602.111 44.655,602.168C47.29,602.431 49.926,602.684 52.562,602.938C53.419,603.025 54.276,603.112 55.158,603.201C73.436,604.933 91.807,605.149 110.152,605.098C112.16,605.096 114.167,605.094 116.174,605.093C121.371,605.09 126.567,605.08 131.763,605.069C137.101,605.058 142.438,605.054 147.775,605.049C158.184,605.038 168.592,605.021 179,605C179.133,606.149 179.266,607.299 179.404,608.483C179.582,610.016 179.761,611.549 179.94,613.081C180.027,613.836 180.114,614.591 180.204,615.368C180.96,621.835 181.88,628.263 182.938,634.688C183.094,635.705 183.251,636.723 183.412,637.771C184.476,644.259 185.493,649.681 190.5,654.312C196.3,658.227 202.945,657.184 209.688,657.188C210.942,657.2 212.197,657.212 213.49,657.225C222.418,657.239 231.84,657.101 239,651C243.138,644.21 244.513,637.171 246.062,629.438C246.334,628.191 246.605,626.945 246.885,625.661C248.549,617.949 248.549,617.949 249.312,610.113C249.58,605.985 249.805,603.521 252,600C257.465,596.414 263.952,594.807 270.149,592.93C274.578,591.485 278.744,589.581 282.938,587.562C283.718,587.188 284.498,586.814 285.302,586.429C321.634,568.574 345.287,538.376 359,501C359.646,499.279 359.646,499.279 360.305,497.523C367.689,476.105 370.245,452.743 370.062,430.188C370.056,428.558 370.056,428.558 370.049,426.896C370.037,424.264 370.021,421.632 370,419C366.907,421.9 365.208,425.193 363.312,428.938C352.521,449.586 338.424,468.478 316,477C315.248,477.318 314.497,477.637 313.723,477.965C300.168,482.993 284.951,480.479 272.145,474.715C258.643,467.878 247.847,456.741 238.086,445.375C230.655,436.914 222.848,428.762 214.938,420.75C214.414,420.214 213.89,419.677 213.351,419.124C210.452,416.219 207.621,413.94 204,412C203.588,413.196 203.175,414.392 202.75,415.625C201.697,418.465 200.542,420.888 198.812,423.375C196.811,425.743 196.71,426.899 195,428C192.27,429.757 190.971,430.406 187.938,431.562C187.287,431.811 186.636,432.06 185.965,432.316C178.038,435.074 167.954,435.49 159.871,433.059C157.418,431.864 155.232,430.566 153,429C151.391,427.917 151.391,427.917 149.75,426.812C144.015,420.947 138.764,412.729 138.625,404.312C138.8,395.893 142.861,389.095 147,382L147,380C144.128,379.198 141.253,378.408 138.375,377.625C137.586,377.403 136.797,377.182 135.984,376.953C122.494,373.313 109.076,372.557 95.188,372.562C94.332,372.562 93.477,372.561 92.596,372.56C77.917,372.593 64.173,373.962 50,378C49.092,378.252 48.184,378.503 47.249,378.763C27.236,384.456 9.648,393.926 -7.324,405.83C-11.874,409.007 -11.874,409.007 -14.406,408.875C-31.81,403.004 -46.882,371.492 -54.558,356.095C-73.196,317.382 -79.431,273.978 -79.261,231.317C-79.25,228.134 -79.261,224.952 -79.273,221.77C-79.3,183.022 -73.685,144.682 -58,109C-56.877,109.266 -55.754,109.531 -54.598,109.805C-53.086,110.161 -51.574,110.518 -50.062,110.875C-49.327,111.049 -48.592,111.223 -47.834,111.402C-46.318,111.76 -44.801,112.113 -43.283,112.461C-41.818,112.807 -40.357,113.174 -38.904,113.568C-32.091,115.321 -25.382,115.344 -18.375,115.312C-17.134,115.308 -15.893,115.304 -14.615,115.3C-3.19,115.159 8.354,114.823 18,108L18,107C16.863,106.865 15.726,106.729 14.555,106.59C1.128,104.798 -10.844,101.695 -20.059,90.992C-21.315,88.334 -20.808,87.763 -20,85C-18.924,83.447 -18.156,83 -16,83C-15.13,83 -13.471,84.194 -13.199,84.809C-9.991,90.671 -4.102,93.853 2,96C7.148,97.205 12.113,97.184 17.375,97.188C18.295,97.2 19.216,97.212 20.164,97.225C29.242,97.401 29.242,97.401 36.891,93.152C37.339,92.421 37.788,91.691 38.25,90.938C38.709,90.225 39.168,89.512 39.641,88.777C43.331,81.237 44.53,74.499 44.438,66.125C44.425,64.666 44.425,64.666 44.412,63.178C44.246,56.125 43.472,50.246 40,44C39.502,43.072 39.005,42.144 38.492,41.188C32.245,30.494 23.971,24.378 13,19C12.16,18.558 11.319,18.116 10.453,17.66C-27.606,-1.312 -71.758,11.268 -99,42Z" style="fill:rgb(7,6,7);fill-rule:nonzero;"/>
        </g>
        <g transform="matrix(1,0,0,1,322,770)">
            <path d="M0,0C2.954,1.327 4.993,2.761 7.242,5.082C7.834,5.685 8.426,6.287 9.035,6.908C9.642,7.537 10.249,8.165 10.875,8.812C12.078,10.051 13.284,11.286 14.492,12.52C15.287,13.341 15.287,13.341 16.097,14.179C18.1,16.188 18.1,16.188 21.128,18.189C24.301,20.82 24.851,23.09 25.29,27.104C25.346,27.878 25.403,28.652 25.461,29.449C25.541,30.262 25.622,31.075 25.704,31.912C25.953,34.502 26.164,37.094 26.375,39.688C26.538,41.411 26.703,43.134 26.871,44.857C27.632,52.921 28.217,60.894 28,69C21.131,69.636 15.54,68.287 10,64C5.871,58.305 4.892,52.683 3.875,45.812C3.71,44.759 3.546,43.705 3.376,42.62C1.224,28.463 -0.471,14.339 0,0Z" style="fill:rgb(248,248,247);fill-rule:nonzero;"/>
        </g>
        <g transform="matrix(1,0,0,1,616.355469,654.84375)">
            <path d="M0,0C9.875,4.532 18.625,11.827 22.645,22.156C23.321,26.399 22.784,29.491 20.348,33.051C17.184,36.267 14.334,37.574 9.832,37.844C2.401,37.379 -5.192,33.463 -10.355,28.156C-14.956,21.323 -18.269,15.642 -17.355,7.156C-14.166,-0.397 -7.659,-2.743 0,0Z" style="fill:rgb(6,6,6);fill-rule:nonzero;"/>
        </g>
        <g transform="matrix(1,0,0,1,568.875,652.75)">
            <path d="M0,0C5.322,2.708 9.695,5.623 12.125,11.25C12.698,15.114 12.448,18.303 11.188,22C7.283,26.26 2.275,27.981 -3.375,28.688C-11.922,27.619 -18.056,24.739 -23.875,18.25C-26.123,14.479 -26.33,11.646 -25.875,7.25C-24.105,3.709 -22.502,1.709 -19.312,-0.625C-12.748,-2.773 -6.393,-2.7 0,0Z" style="fill:rgb(5,5,6);fill-rule:nonzero;"/>
        </g>
        <g transform="matrix(1,0,0,1,518,645)">
            <path d="M0,0C2.948,3.096 4.827,5.476 5.312,9.75C4.915,13.886 3.624,15.809 1,19C-4.82,23.324 -11.047,22.699 -18,22C-22.679,20.732 -25.293,18.795 -28.5,15.188C-30.308,11.346 -30.675,9.198 -30,5C-27.118,0.317 -24.343,-1.888 -19.102,-3.527C-11.869,-5.154 -6.261,-3.833 0,0Z" style="fill:rgb(5,5,6);fill-rule:nonzero;"/>
        </g>
        <g transform="matrix(1,0,0,1,457.65625,591.050781)">
            <path d="M0,0C2.791,1.714 4.863,2.988 6.344,5.949C7.038,13.003 7.038,13.003 4.281,16.762C-3.346,22.441 -10.242,22.956 -19.656,21.949C-23.352,20.754 -25.782,18.741 -28.656,16.137C-30.262,12.625 -29.791,10.605 -28.656,6.949C-21.644,-1.282 -10.16,-4.019 0,0Z" style="fill:rgb(6,6,6);fill-rule:nonzero;"/>
        </g>
        <g transform="matrix(1,0,0,1,535,822)">
            <path d="M0,0L20,0C20.495,2.805 20.99,5.61 21.5,8.5C21.657,9.367 21.813,10.234 21.975,11.127C22.837,16.161 23.141,20.894 23,26C10.181,26.709 10.181,26.709 5,23C-0.123,16.496 0.306,7.875 0,0Z" style="fill:rgb(249,248,248);fill-rule:nonzero;"/>
        </g>
        <g transform="matrix(1,0,0,1,669,692)">
            <path d="M0,0C3.348,1.19 5.27,3.048 7.438,5.875C8.261,8.987 7.942,10.921 7,14C3.703,17.905 1.457,19.784 -3.707,20.238C-14.26,20.49 -14.26,20.49 -19,16C-21.125,13.32 -21,11.984 -20.938,8.5C-19.824,4.343 -18.573,3.266 -15,1C-10.585,-1.207 -4.805,-0.426 0,0Z" style="fill:rgb(8,8,8);fill-rule:nonzero;"/>
        </g>
        <g transform="matrix(1,0,0,1,493,598)">
            <path d="M0,0C4.574,1.533 9.34,3.9 12,8C12.664,11.153 12.75,13.858 12,17C8.823,20.257 6.664,20.902 2.188,21.562C-4.066,21.226 -9.088,17.772 -13.562,13.625C-15.489,10.107 -15.646,7.949 -15,4C-11.111,-1.056 -5.874,-0.894 0,0Z" style="fill:rgb(7,7,7);fill-rule:nonzero;"/>
        </g>
        <g transform="matrix(1,0,0,1,344.4375,250.375)">
            <path d="M0,0C4.619,0.81 6.519,2.061 9.562,5.625C10.368,8.48 10.324,10.763 9.562,13.625C7.5,16.625 7.5,16.625 4.562,18.625C0.26,19.317 -1.647,19.141 -5.312,16.75C-8.025,14.038 -8.377,13.163 -8.812,9.312C-8.438,5.625 -8.438,5.625 -6.375,2.688C-3.438,0.625 -3.438,0.625 0,0Z" style="fill:rgb(7,7,8);fill-rule:nonzero;"/>
        </g>
    </g>
</svg>
